<?xml version="1.0" encoding="UTF-8"?>
<svg id="Layer_2" data-name="Layer 2" xmlns="http://www.w3.org/2000/svg" width="827.36" height="958.05" xmlns:xlink="http://www.w3.org/1999/xlink" viewBox="0 0 827.36 958.05">
  <defs>
    <style>
      .cls-1 {
        fill: url(#linear-gradient);
      }

      .cls-1, .cls-2, .cls-3, .cls-4, .cls-5, .cls-6, .cls-7, .cls-8, .cls-9, .cls-10, .cls-11, .cls-12, .cls-13, .cls-14, .cls-15, .cls-16, .cls-17, .cls-18, .cls-19, .cls-20 {
        stroke-width: 0px;
      }

      .cls-2 {
        fill: #ef5350;
      }

      .cls-3 {
        fill: url(#linear-gradient-6);
      }

      .cls-4 {
        fill: #b71c1c;
      }

      .cls-5 {
        fill: #bf360c;
      }

      .cls-6 {
        fill: #2c223d;
      }

      .cls-7 {
        fill: #e8eaf6;
      }

      .cls-8 {
        fill: url(#linear-gradient-5);
      }

      .cls-9 {
        fill: #ffccbc;
      }

      .cls-10 {
        fill: #fff;
      }

      .cls-11 {
        fill: #e57373;
      }

      .cls-12 {
        fill: url(#linear-gradient-2);
      }

      .cls-13 {
        fill: url(#linear-gradient-7);
      }

      .cls-14 {
        fill: url(#linear-gradient-3);
      }

      .cls-15 {
        fill: #7e57c2;
      }

      .cls-16 {
        fill: #212121;
      }

      .cls-17 {
        fill: #562605;
      }

      .cls-18 {
        fill: url(#linear-gradient-4);
      }

      .cls-19 {
        fill: #ffab91;
      }

      .cls-20 {
        fill: #ffca28;
      }
    </style>
    <linearGradient id="linear-gradient" x1="1113.18" y1="-111.95" x2="1247.42" y2="239.97" gradientTransform="translate(1237.85 -392.05) rotate(148.22) scale(1 -1)" gradientUnits="userSpaceOnUse">
      <stop offset="0" stop-color="#ffab91"/>
      <stop offset="1" stop-color="#ffccbc"/>
    </linearGradient>
    <linearGradient id="linear-gradient-2" x1="1344.36" y1="149.89" x2="1322.47" y2="62.92" gradientTransform="translate(-1132.96 -46.36) rotate(14.79) scale(1 -1)" gradientUnits="userSpaceOnUse">
      <stop offset="0" stop-color="#e53935"/>
      <stop offset="1" stop-color="#e57373"/>
    </linearGradient>
    <linearGradient id="linear-gradient-3" x1="1226.52" y1="74.6" x2="1164.53" y2="57.21" gradientTransform="translate(1480.51 -122.69) rotate(170.57) scale(1 -1)" xlink:href="#linear-gradient-2"/>
    <linearGradient id="linear-gradient-4" x1="1222.9" y1="131.88" x2="1216.09" y2="-7.32" gradientTransform="translate(1443.1 -180.74) rotate(166.61) scale(1 -1)" xlink:href="#linear-gradient-2"/>
    <linearGradient id="linear-gradient-5" x1="1174.64" y1="75.46" x2="1163.08" y2="18.09" xlink:href="#linear-gradient"/>
    <linearGradient id="linear-gradient-6" x1="181.3" y1="290.05" x2="170.96" y2="471.9" gradientUnits="userSpaceOnUse">
      <stop offset="0" stop-color="#ffee58"/>
      <stop offset="1" stop-color="#fb8c00"/>
    </linearGradient>
    <linearGradient id="linear-gradient-7" x1="230.02" y1="405.95" x2="553.49" y2="860.4" gradientUnits="userSpaceOnUse">
      <stop offset="0" stop-color="#4a3e57"/>
      <stop offset="1" stop-color="#2c223d"/>
    </linearGradient>
  </defs>
  <g id="Layer_1-2" data-name="Layer 1">
    <g>
      <g>
        <path class="cls-7" d="M317.34,651.46c-19.27,0-38.82-2.78-58.34-9.2-55.78-18.34-89.38-60.1-124.95-104.31C67.88,455.71,22.87,356.86.25,244.16c-1.39-6.93,3.1-13.67,10.03-15.06,6.93-1.39,13.67,3.1,15.06,10.03,21.8,108.63,65.08,203.78,128.65,282.78,34.57,42.96,64.43,80.06,113.01,96.05,124.6,40.99,256.26-88.31,270.87-103.19,4.95-5.04,13.05-5.11,18.09-.17,5.04,4.95,5.12,13.05.17,18.09-13.54,13.79-120.51,118.77-238.78,118.77Z"/>
        <path class="cls-7" d="M214.16,950.9c-.54,0-1.08-.05-1.63-.16-4.62-.89-7.65-5.37-6.75-9.99l58.5-302.43c.89-4.63,5.36-7.65,9.99-6.75,4.62.89,7.65,5.37,6.75,9.99l-58.5,302.43c-.79,4.08-4.36,6.91-8.36,6.91Z"/>
        <path class="cls-7" d="M525.67,945.72c-3.47,0-6.73-2.13-8-5.57l-115.85-313.23c-1.64-4.42.62-9.33,5.04-10.96,4.42-1.64,9.32.62,10.96,5.04l115.85,313.23c1.63,4.42-.62,9.33-5.04,10.96-.97.36-1.98.53-2.96.53Z"/>
        <path class="cls-7" d="M241.04,811.86c-4.32,0-8.02-3.26-8.47-7.65-.49-4.68,2.92-8.88,7.6-9.36l219.93-22.76c4.71-.47,8.88,2.92,9.36,7.61.49,4.68-2.92,8.88-7.6,9.36l-219.93,22.76c-.3.03-.6.04-.89.04Z"/>
      </g>
      <g>
        <path class="cls-17" d="M207.56,409.62c-14.07,5.26-28.14,10.52-42.21,15.77-38.6,12.46-60.04,1.06-66.11-2.63-21.96-13.38-28.69-39.24-39.55-81.06-11.06-42.56-3.68-40.9-13.29-67.89-10.84-30.43-24.95-40.64-23.97-67.61.53-14.51,5.04-23.53,6.25-25.82,12.5-23.55,38.37-29.38,40.49-29.81,25.64-5.28,54.26,8.78,70.61,35.5,5.6,12.95,13.88,32.73,23.08,57.39,10.67,28.58,8.12,24.99,11.71,32.68,18.84,40.31,56.9,70.65,56.67,85.59,0,0,2.9,4.9-4.47,20.8,0,0,0,0,0,0-5.25,13.48-13.81,22.32-19.22,27.08Z"/>
        <path class="cls-9" d="M577.18,863.42c4.64,16.81,9.28,33.63,13.92,50.44,18.83,7.07,34.16,13.49,45.27,18.33,13.28,5.79,17.62,8.06,17.31,10.07-.67,4.32-22.44,5.45-39.9,3.18-21.99-2.87-39.45-11.44-51.63-19.2-4.25-11.61-8.5-23.22-12.75-34.83,9.26-9.33,18.52-18.67,27.78-28Z"/>
        <path class="cls-2" d="M585.56,926.45c3.57,3.17,6.85,6.35,9.85,9.47,25.76,11.38,37.68,9.58,43.78,5.48,2.03-1.37,5.41-4.23,10.42-4.44,6.82-.29,12.57,4.46,16.06,7.35,1.64,1.35,3.04,2.73,4.24,4.04,1.81,1.99.52,5.17-2.16,5.28l-94.85,3.95c-3.44-4.14-6.89-8.28-10.33-12.42-.3,4.29-.59,8.59-.89,12.88l-14.22-1.09c-.77-6.8-1.16-15.8.15-26.22,1.37-10.91,4.14-19.85,6.69-26.37,9.69,5.35,20.48,12.5,31.27,22.07Z"/>
        <path class="cls-9" d="M713.78,762.43c8.4,10.86,16.79,21.72,25.19,32.58,22.46,5.71,40.28,7.28,52.84,7.58,6.46.15,11.45-.03,11.99,1.84,1.23,4.24-20.46,18.43-43.72,19.56-26.37,1.29-44.18-14.14-47.75-17.37-7.38-7.12-14.76-14.25-22.14-21.37,7.86-7.6,15.71-15.21,23.57-22.81Z"/>
        <path class="cls-2" d="M745.92,814.17c4.14,1.51,8.02,3.13,11.66,4.8,25.96,1.05,35.58-4.53,39.42-10.11,1.28-1.86,3.21-5.46,7.43-7.34,5.75-2.56,12.29-.42,16.27.87,1.86.61,3.54,1.31,5,2.03,2.23,1.09,2.2,4.26-.07,5.27l-80.06,35.49c-4.36-2.39-8.71-4.77-13.07-7.16,1.2,3.79,2.4,7.57,3.6,11.36l-12.57,3.88c-2.96-5.58-6.34-13.17-8.74-22.55-2.52-9.82-3.16-18.43-3.18-24.9,10.12,1.31,21.81,3.79,34.3,8.36Z"/>
        <path class="cls-9" d="M284.89,492.39c3.2,5.75,5.91,10.46,7.77,13.68-31.84,13.04-63.68,26.11-95.55,39.17-.83-1.99-2.02-4.8-3.27-8.25-5.12-14.2-6.98-25.79-8.2-33.92-1.34-9.12-.82-8.65-2.1-15.62,0,0-2.07-11.12-5.82-22.09-8.41-24.5-42.82-55.22-61.8-91.94-4.67-9.04-10.82-23.18-14.76-42.48,5.02-7.23,10-14.47,14.99-21.68.61-7.62.66-19.83-3.7-33.88-2.01-6.48-4.58-12.06-7.14-16.65-1.14-2.13-2.32-4.04-3.43-5.72,5.13-1.57,11.12-2.94,17.86-3.81,6.08-.44,8.13-.56,10.95-.84,6.75.71,13.46,1.4,20.22,2.1,0,.63-.03,1.31-.05,1.98-.25,7.4-.98,9.43-1.32,14.93-.28,4.68-.65,11,1.25,18.27l.03.06c1.4,5.38,3.59,9.47,5.2,12.03,4.08.61,9.41,1.02,15.62.39,4.77-.46,8.84-1.43,12.14-2.44,11.48,30.84,23.35,40.64,32.53,43.48,1.33.4,2.41.63,4.51,1.44,10.01,3.84,18.85,12.09,26.4,26.63,9.48,18.33,6.2,26.03,16.69,73.59,2.58,11.73,4.76,20.21,9.48,30.17,2.68,5.6,6.69,12.82,11.51,21.4Z"/>
        <path class="cls-19" d="M150.89,250.46c0,.63-.03,1.31-.05,1.98-.25,7.4-.98,9.43-1.32,14.93-.28,4.68-.65,11,1.25,18.27-.43.22-.74.39-.98.49-8.33-1.53-14.61-4.19-18.71-6.3-10.16-5.25-16.99-12.16-23.14-18.34-.94-.96-1.84-1.9-2.64-2.77-1.14-2.13-2.32-4.04-3.43-5.72,5.13-1.57,11.12-2.94,17.86-3.81.16-.03.3-.03.46-.06,3.69-.45,7.2-.68,10.49-.78,6.75.71,13.46,1.4,20.22,2.1Z"/>
        <path class="cls-9" d="M108.25,167.59c19.52-1.96,33.29,10.36,36.95,13.96,3.93,3.87,6.76,8.06,10.88,16.51,5.31,10.9,12.04,27.43,16.45,49.63-5.09,3.42-12.69,7.54-22.58,9.81-3.94.9-14.76,3.27-26.88.53-7.12-1.61-12.63-4.45-13.5-5-1.9-1.19-3.8-2.38-5.7-3.56-3.27,2.04-5.89,2.37-7.5,2.38-11.92.03-21.83-17.72-25.11-29.81-.01-.05-.02-.09-.03-.11-1.34-4.98-3.8-14.27-.42-24.9,4.05-12.75,18.38-27.52,37.43-29.44Z"/>
        <path class="cls-1" d="M255.41,276.03c2.56,1.87,6.25,4.14,11.04,5.74,2.44.82,4.32,1.03,4.67,1.25,4.86,2.97,11.3,13.77,17.56,26.16l19.05-14.94c-6.79-9.31-13.86-20.51-20.9-34.11-3.5-.96-7.66-2.58-11.85-5.36-14.08-9.33-17.96-24.74-18.95-29.44-4.16,9.22-8.32,18.44-12.48,27.66-1.6-1.9-6.3-6.94-13.84-8.15-2.54-.41-4.8-.28-6.59-.01,5.34,7.96,13.03,17.24,23.98,25.52,2.82,2.14,5.62,4.02,8.33,5.68Z"/>
        <g>
          <path class="cls-12" d="M171.35,180.23h15.83c2.98,0,5.41,2.42,5.41,5.41v20.54c0,2.98-2.42,5.41-5.41,5.41h-15.83v-31.35h0Z" transform="translate(428.3 299.9) rotate(155.78)"/>
          <path class="cls-4" d="M232.21,204.36c4.04,7.71,10.86,18.47,21.97,28.79,7.86,7.31,15.64,12.33,21.93,15.74.22,2.01.44,4.02.66,6.03,0,0-39.44-9.61-39.79-10.38-.35-.77-12.03-37.84-12.03-37.84l7.26-2.34Z"/>
          <polygon class="cls-4" points="238.91 202.31 246.71 215.79 244.27 218.43 231.99 205.42 238.91 202.31"/>
          <path class="cls-2" d="M234.17,202.55c.28.43,10.1,15.88,10.1,15.88l-7.14,5.22-13.33-15.79,10.36-5.31Z"/>
          <path class="cls-2" d="M226.09,203.91c3.94,9.41,12.58,26.13,30.32,39.47,7.24,5.44,14.33,9.08,20.35,11.55l-26.75,10.37c-2.47-1.28-5.89-3.25-9.63-6.11-3.61-2.75-8.23-6.86-14.38-15.02-10.94-14.51-17.88-30.08-17.88-30.08,5.99-3.39,11.98-6.79,17.97-10.18Z"/>
          <path class="cls-10" d="M182.2,196.43c5.95,13.22,13.92,23.09,19.61,24.95.8.26,1.55.37,2.25.3.43-.04,1.26-.24,1.26-.24l43.67-19.65-26.51-58.91-43.67,19.65s-.7.5-1.02.78c-.51.48-.94,1.11-1.27,1.89-2.37,5.5-.28,18.01,5.67,31.23Z"/>
          <path class="cls-10" d="M298.37,144.36c10.84,24.08,25.35,42.05,35.72,45.44,1.45.48,2.83.67,4.1.55.78-.07,1.53-.26,2.24-.58,9.94-4.47,7.21-32.05-6.08-61.6-13.3-29.55-32.13-49.88-42.06-45.41-.71.32-1.34.75-1.92,1.29-.94.87-1.7,2.03-2.31,3.44-4.33,10.02-.51,32.79,10.32,56.87Z"/>
          <path class="cls-14" d="M319.3,128.02h0c1.16-.52,3.35,1.85,4.89,5.28,1.55,3.44,1.86,6.65.71,7.17h0s-37.81,22.57-37.81,22.57l-9.76-21.69,41.97-13.33Z"/>
          <path class="cls-18" d="M226.89,176.52c7.36,16.36,17.33,27.82,22.26,25.6.32-.15,1.88-.77,3.19-1.36.62-.28,30.48-12.52,46.39-11.93l27.33,1.01c-9.29-6.23-21.25-22.88-30.79-44.09-9.54-21.2-14.07-41.19-12.57-52.28l-17.36,21.12c-8.22,9.99-18.44,17.82-29.95,23-2.66,1.2-12.4,5.07-12.89,5.29-4.93,2.22-2.96,17.28,4.4,33.64Z"/>
          <path class="cls-4" d="M294.22,146.22c9.54,21.21,21.93,37.67,31.84,43.62l8.03-.04c-10.37-3.39-24.89-21.36-35.72-45.44-10.83-24.08-14.65-46.85-10.32-56.87l-5.36,5.99c-2.11,11.37,1.99,31.55,11.53,52.75Z"/>
          <path class="cls-4" d="M320.41,135c1.02,2.26,2.38,3.94,3.35,4.26.14.05.27.06.38.05.07,0,.14-.02.21-.05.93-.42.68-3-.57-5.77-1.25-2.77-3.01-4.68-3.94-4.26-.07.03-.13.07-.18.12-.09.08-.16.19-.22.32-.41.94-.05,3.07.97,5.33Z"/>
        </g>
        <path class="cls-8" d="M272.47,224.92c-3.02-1.4-14.28-6.18-26.21-1.55-3.56,1.38-6.35,3.28-8.43,5.05.94,1.02,2.39,2.26,4.4,2.79,5.11,1.36,9.2-3.07,11.96-1.36.91.56,1.83,1.89,1.84,5.26-.31-.01-.75-.02-1.28-.03-.78,0-1.83,0-2.93.06-.56.03-3.4.2-5.32,1.25-2.04,1.12-2.87,3.34-4.45,7.74-.67,1.86-1.49,4.48-2.15,7.73,3.22-.15,7-.85,8.51-3.49.79-1.38.26-2.08,1.21-3.56,1.89-2.95,6.7-4.37,9.82-2.74.65.34,1.11.78,1.39,1.1-2.01.96-4.93,2.65-7.78,5.53-3.39,3.44-5.14,7.02-6.01,9.24.52.19,4.39,1.51,8.08-.74,2.66-1.62,3.63-4.13,3.9-4.9,5.32.83,10.63,1.66,15.95,2.49.83.56,2.07,1.55,2.96,3.14,1.52,2.69.69,4.67,1.55,7.3,1.09,3.35,4.54,6.63,6.47,6.13,3.49-.9,4.4-14.73.87-26.15-2.12-6.87-14.34-20.28-14.34-20.28Z"/>
        <path class="cls-20" d="M191.94,292.88c11.16,7.83,26.71,17.05,46.55,24.26,9.83,3.57,19.1,6.06,27.51,7.81,5.76,1.2,10.37-4.77,7.81-10.07-3.77-7.81-7.54-15.63-11.3-23.44l48.69-20.7c5.03,34.62,10.05,69.25,15.08,103.88,1.07,7.39-4.43,14.12-11.89,14.46-12.68.58-28.68.03-46.63-3.73-23.72-4.97-44.46-9.31-59.75-26.97-20.92-24.17-17.33-56.74-16.07-65.48Z"/>
        <path class="cls-3" d="M254.65,379.98c1.15,6.88,1.43,14.46,3.39,25.44,1.53,8.65,2.48,10.6,3.61,15.15.52,2.1.83,3.71,1.04,4.73.86,4.38,2.97,16.64,5.72,33.06-9.25,7.23-22.72,16.21-40.41,23.41-18.16,7.4-34.45,10.36-46.28,11.57-3.14-5.49-8.06-14.17-14.15-25-5.09-9.07-6.47-11.12-8.35-14.01-8.57-13.16-23.15-18.1-27.53-20.03-6.8-2.98-15.2-10.21-25.08-26.61-7.42-12.25-15.64-29.63-24.68-54.19-1.69-4.64-.09-9.86,3.93-12.76,2.24-1.63,4.6-3.44,7-5.47,5.55-4.74,10-9.5,13.5-13.67,0,0,6.82-11.46,8.17-13.1,1.33-1.63-3.83-10.53-3.83-10.53,0,0,.66-2.19,6.74-5.75,6.12-3.58,30.22-6.52,33.37-6.51,3.12.02,5.99,10.31,5.99,10.31,0,0,1.29,1.99,3.32,2.2,2.02.2,13.81-.43,13.81-.43,5.97-1.65,11.99-3.28,18-4.91,2.99,7.62,8.52,19.74,18.59,32.18,19.29,23.84,31.14,23.35,39.8,41.09,2.37,4.84,3.56,9.17,4.34,13.82Z"/>
        <path class="cls-16" d="M117.64,205.37c1.42-1.19,3.29-2.55,5.62-3.79,2.23-1.19,4.3-1.98,6.02-2.5.67-.36.92-1.21.56-1.88-.36-.67-1.2-.92-1.88-.56-1.74.54-3.82,1.35-6.05,2.55-2.3,1.23-4.16,2.57-5.59,3.75-.67.36-.92,1.21-.56,1.88.36.67,1.2.92,1.88.56Z"/>
        <path class="cls-17" d="M38.43,199.4c-.37-3.7-.92-7.39.73-11.62,5.3-13.6,25.72-16.03,28.59-16.33.48-4.36,2.33-15.42,11.24-23.86,17.42-16.49,44.5-5.9,46.65-5.03,1.95.79,24.16,10.26,29.07,32.66,1.53,7,.89,13.03.17,16.84-8.04,3.06-16.09,6.12-24.13,9.18-1.28-2.08-2.84-4.3-4.74-6.55-5.49-6.48-11.58-10.48-16.2-12.9-.05-.02.1.07.39.28.46.32,5.64,4.63,6.48,5.48,8.88,8.98,9.25,36.6,9.25,36.6.1,7.74-.27,22.75-5.17,42.11-2.65,10.47-5.8,18.98-8.31,25.04-18.42-20.01-28.14-25.71-33.62-26.28-.54-.06-2.26-.18-4.17-1.18-5.27-2.75-5.49-8.72-8.25-16.75-8.32-24.17-25.94-27.01-27.99-47.68Z"/>
        <path class="cls-6" d="M268.4,458.36c14.71,20.78,29.42,41.56,44.13,62.33,27.57-7.11,58.49-14.3,92.46-20.95,41.63-8.15,64.83-1.76,94.31.05,5.68.35,10.94,3.07,14.48,7.52l209.52,263.12-25.93,24.6c-13.83-13.69-36.19-35-65.54-59.32-40.21-33.31-57.72-42.57-81.24-67.68-15.07-16.08-35.52-41.78-53.12-80.53-63.85,4.12-127.71,8.24-191.56,12.36l-67.63-126.05c10.04-5.15,20.08-10.3,30.12-15.45Z"/>
        <path class="cls-13" d="M158.75,510.36c5.13,19.25,36.28,64.34,38.59,67.31,5.78,7.41,10.73,12.43,13.59,15.35,26.16,26.73,31.03,34.88,47.04,41.76,1.97.85,3.36,1.36,5,1.95,10.08,3.62,28.87,8.47,60.39,6.74,25.16-1.38,66.79-7.12,115.61-31.15.77,6.29,2.11,15.88,4.43,27.41,9.91,49.21,27.57,83.41,36.85,101.97,18.38,36.75,40.31,84.93,69,152.85,23.33-8.15,13.88-4.85,37.22-13-29.42-104.99-58.84-209.98-88.27-314.97-.96-3.41-3.06-6.36-5.98-8.37-15.47-10.65-67.93-43.7-117.4-39.03-58.84,5.55-61.73,14.67-67.5,10.75-9.1-6.19-47.76-67.85-54.71-63.99-3.55,1.97-6.31,3.95-8.17,5.4-28.56,13.01-57.12,26.02-85.68,39.03Z"/>
        <polygon class="cls-16" points="205.4 371.99 189.53 332.38 219.2 316.98 223.58 316.64 205.4 371.99"/>
        <path class="cls-16" d="M226.25,410.36c-11.14-25.85-22.27-51.7-33.41-77.55,10.25-5.39,20.49-10.78,30.74-16.17,10.31,24.19,20.62,48.38,30.93,72.57-9.42,7.05-18.83,14.1-28.25,21.15Z"/>
        <path class="cls-9" d="M203.63,421.25l4.62-23.23c-2.89-11.67-5.09-20.97-6.62-27.52-.66-2.85-1.73-7.6-.15-8.47,1.2-.66,3.48,1.16,5.09,2.68,1.55,3.59,3.1,7.18,4.64,10.78.38,1.11,1.04,2.68,2.17,4.36,1.39,2.05,2.49,3.68,3.72,4,3.97,1.03,12.72-10.65,15.79-23.91,1.43-6.17,2.38-15.93,2.38-15.93h0s7.6,3.77,8.89,6.75c1.29,2.97,5.05,18.47,6.58,22.83,1.53,4.36-1.46,17.2-1.16,23.03.3,5.83-12.71,9.81-18.5,22.57-5.79,12.76-9.53,20.9-10.23,21.2-.7.3-17.24-19.13-17.24-19.13Z"/>
        <path class="cls-20" d="M81.68,342.04s2.38-4.33,7.61-6.23c9.23-3.35,19.61,4.43,24.38,8.01,24.74,18.57,56.09,113.92,58.83,122.37,9.26-17.62,18.52-35.25,27.79-52.87,8.21,9.07,16.42,18.14,24.62,27.21-.01,13.73-2.13,45.22-24.62,68.51-5.72,5.92-19.75,20.45-34.79,17.62-10.38-1.95-16.53-11.29-21.85-19.63-32.94-51.6-42.8-72.12-42.8-72.12-23.67-49.23-28.02-64.61-23.29-82,1.28-4.69,2.9-8.41,4.12-10.89Z"/>
        <path class="cls-19" d="M146.76,209.97c4.39,1.55,6.89,3.97,8.11,5.39,1.38,1.6,2.73,3.16,2.5,5.12-.26,2.14-2.3,4-5.15,4.9-.31-1.62-.71-3.35-1.25-5.17-1.19-4.03-2.71-7.45-4.21-10.25Z"/>
        <rect class="cls-16" x="148.82" y="195.19" width="6.52" height="11.62" rx="1.13" ry="1.13" transform="translate(381.45 305.5) rotate(151.6)"/>
        <rect class="cls-16" x="130.62" y="205.03" width="6.52" height="11.62" rx="1.13" ry="1.13" transform="translate(351.92 332.65) rotate(151.6)"/>
        <path class="cls-5" d="M143.17,238.71l.9,1.66s.01.02.02.04c1.2,2.16,3.01,3.75,5.12,4.66.73.33,1.5.58,2.3.72,2.31.43,4.8.1,7.04-1.11s3.87-3.11,4.78-5.28c.36-.83.58-1.7.7-2.61.33-2.17-.04-4.46-1.14-6.56t-.02-.04l-.9-1.66-18.8,10.16Z"/>
        <path class="cls-10" d="M143.17,238.71l.9,1.66s.01.02.02.04l18.8-10.16s-.01-.02-.02-.04l-.9-1.66-18.8,10.16Z"/>
        <path class="cls-11" d="M149.22,245.07c.73.33,1.5.58,2.3.72,2.31.43,4.8.1,7.04-1.11s3.87-3.11,4.78-5.28c.36-.83.58-1.7.7-2.61-.17-.05-.36-.13-.53-.18-1.7-.53-3.59-.37-5.29.54l-5.44,2.94c-1.97,1.06-3.22,2.93-3.56,4.96Z"/>
        <path class="cls-15" d="M383.22,136.82c.48-.26,1.04-.39,1.63-.34l101.73,7.15c1.67.12,2.93,1.57,2.81,3.24-.12,1.67-1.56,2.93-3.24,2.82l-101.73-7.15c-1.67-.12-2.93-1.57-2.81-3.24.08-1.09.71-2,1.61-2.47ZM377.98,101.79c.59,1.57,2.34,2.36,3.91,1.77l102.66-38.79c1.56-.59,2.36-2.34,1.77-3.91-.59-1.57-2.34-2.36-3.91-1.77l-102.66,38.79c-.12.05-.24.1-.35.16-1.33.7-1.96,2.31-1.42,3.75ZM431.91.78l-70.23,63.08c-1.25,1.12-1.35,3.04-.23,4.29,1.12,1.25,3.05,1.35,4.29.23L435.97,5.29c1.25-1.12,1.35-3.04.23-4.29-.95-1.06-2.48-1.29-3.68-.65-.21.11-.42.26-.61.43Z"/>
      </g>
    </g>
  </g>
</svg>