<?xml version="1.0" encoding="UTF-8"?>
<svg id="Layer_2" data-name="Layer 2" xmlns="http://www.w3.org/2000/svg" width="2627.59" height="2609.5" viewBox="0 0 2627.59 2609.5">
  <defs>
    <style>
      .cls-1 {
        fill: #237304;
      }

      .cls-1, .cls-2, .cls-3, .cls-4, .cls-5, .cls-6, .cls-7, .cls-8, .cls-9, .cls-10, .cls-11, .cls-12 {
        fill-rule: evenodd;
        stroke-width: 0px;
      }

      .cls-2 {
        fill: #fa0;
      }

      .cls-3 {
        fill: #654996;
      }

      .cls-4 {
        fill: #dc9200;
      }

      .cls-5 {
        fill: #158c97;
      }

      .cls-6 {
        fill: #9b205e;
      }

      .cls-7 {
        fill: #453367;
      }

      .cls-8 {
        fill: #309608;
      }

      .cls-9 {
        fill: #e50f57;
      }

      .cls-10 {
        fill: #fff;
      }

      .cls-11 {
        fill: #fc0;
      }

      .cls-12 {
        fill: #1dc5d3;
      }
    </style>
  </defs>
  <g id="Layer_1-2" data-name="Layer 1">
    <g>
      <path class="cls-7" d="M896.71,2164.97c-12.85,14.28-9.44,3.91-15.91,37.86-6.47,33.95-1.97,66.13,7.37,86.46,3.04,6.63,34.37,37.52,75.81,76.28,11.84-12.89,24.08-25.33,36.61-36.99-53.55-65.91-99.46-130.63-103.89-163.6h0Z"/>
      <path class="cls-9" d="M886.56,2282.89c26.19,26.71,52.94,53.27,80.25,79.62-24.31,26.18-47.01,54.35-67.32,81.77-4.4-50.19-9.34-109.49-12.82-159.77l-.11-1.62h0Z"/>
      <path class="cls-2" d="M1231.56,139.4c22.9,26.59,46.08,55.26,69.53,86.44,206.14,274.04,320.79,684.23,416.16,1073.62,80.33-48.35,159.31-90.64,226.8-122.23-.14-31.08.12-62.09.92-92.92,8.02-312.94-125.1-667.86-333.53-956.8l-379.87,11.9h0Z"/>
      <path class="cls-6" d="M1944.02,1177.24c-.14-31.09.15-62.1.94-92.93,8.02-312.97-125.09-667.9-333.57-956.8l-88.15,2.76c182.27,295.19,303.53,675.12,377.69,1067.82,14.79-7.38,29.18-14.34,43.08-20.85h0Z"/>
      <path class="cls-4" d="M1231.56,139.4c22.9,26.59,46.08,55.26,69.53,86.44,206.14,274.04,320.79,684.23,416.17,1073.61,32.86-19.77,65.49-38.54,97.22-55.98-38.92-232.56-67.07-429.73-87.56-524.03-34.74-159.94-141.28-384.23-289.74-586.47l-205.62,6.44h0Z"/>
      <path class="cls-5" d="M1612.99,1365.27c-78.69-358.53-196.14-774.07-489.03-1222.5l133.71-4.19c124.44,122.46,268.35,309.72,384.05,587.6,72.41,173.92,111.39,352.74,143.7,533.49-56.56,31.98-115.29,67.77-172.43,105.61h0Z"/>
      <path class="cls-12" d="M1612.94,1365.3c-75.11-342.09-185.49-736.05-449.84-1160.98,94.51,102.01,219.87,263.28,363.97,513.01,95.78,165.96,146.14,369.64,188.9,582.9-34.38,20.72-68.99,42.53-103.03,65.08h0Z"/>
      <path class="cls-11" d="M1132.44,2054.53c-318.27-505.96,42.19-968.87-172.98-1701.88,0,0,173.07,232.1,158.86,661.11-7.95,239.98,8.42,500.25,109.5,761.33-28.14,107.97-74.53,212.27-95.38,279.45h0Z"/>
      <path class="cls-11" d="M1006.4,2323.26c-44.22-59.87-83.97-116.82-119.75-170.89,3.11-49.83,8.63-91.83,10.45-127.57.44-8.62.6-21.11.54-36.41,63.89,91.25,136.73,185.54,218.28,276.76-4.6,3.41-9.42,6.8-14.48,10.16-104.66,69.57,25.53-58.4-90.21,43.62-1.61,1.42-3.22,2.87-4.83,4.32h0Z"/>
      <path class="cls-9" d="M1573.53,128.69c208.34,332.46,290.5,706.81,334.63,1065.8,52.57-25.97,99.81-46.52,137.61-59.75,12.37-4.33,24.6-8.31,36.68-11.99-32.5-292.45-144.87-616.37-462.97-995.5l-45.95,1.44h0Z"/>
      <path class="cls-8" d="M1438.87,747.55s71.33,171.36,140.55,640.32c24.95-17.08,50.34-33.82,75.88-50.08-14.9-165.91-49.19-333.27-216.43-590.24h0Z"/>
      <path class="cls-12" d="M1136.81,2248.2c-128.57-158.91-202.78-362.07-248.61-581.46,3.81,107.64,11.59,305.18,8.89,358.06-.74,14.6-2.11,30.24-3.66,47.03,41.7,72.51,91.31,146.78,149.65,219.59,55.98-46.6-33.75,45.11,58.35-16.11,13.43-8.93,25.2-18.03,35.38-27.12h0Z"/>
      <path class="cls-5" d="M893.43,2071.82c41.7,72.51,91.32,146.78,149.67,219.59,53.36-44.42-25.76,36.94,46.77-8.61-80-114.1-143.24-236.66-193.3-362.32,1.11,46.43,1.52,85.02.53,104.32-.74,14.59-2.1,30.23-3.66,47.02h0Z"/>
      <path class="cls-7" d="M892.1,1775.41c51.61,171.2,124.37,335,228.25,486.41,22.92-17.6,39.69-35.49,50.75-52.19-325.12-562.61-189.85-1355.35-317.85-1829.77-2.32,56.04-3.89,118.43-3.7,182.52.67,215.37-40.33,333.91,2.34,469.88,42.67,135.96,64.13,208.84,61.89,311.69-2.24,102.86-29.19,196.56-27.3,269.94.77,29.86,3.21,92.93,5.62,161.52h0Z"/>
      <path class="cls-4" d="M1105.92,143.33c45.2,76.78,90.49,171.23,133.02,287.44,158.07,431.89,84.78,708.75,175.9,1081.54,22.44-19.08,46.3-38.18,71.17-57.12-10.05-103.57-16.73-223.52-16.66-359.21.16-307.05-122.14-688.02-290.28-954.95l-73.15,2.29h0Z"/>
      <path class="cls-3" d="M885.04,2185.4c33.01,51.06,68.63,101.71,107.04,151.26,6.3-6.1,12.69-12.03,19.14-17.72,7.74-6.82,14.35-12.58,20.03-17.47-46.93-61.02-94.04-127.89-140.49-201.06-2.36,25.77-4.67,54-5.72,84.99h0Z"/>
      <path class="cls-9" d="M835.21,1147.56c-2.24,48.59-12.21,187.17,10.93,178.79,23.14-8.38,22.96-209.7-10.93-178.79h0Z"/>
      <path class="cls-9" d="M838.07,1370.55c-7.34.19-8.69,54.38,7.3,33.77,15.99-20.61,5.45-37.77-7.3-33.77h0Z"/>
      <path class="cls-9" d="M1404.28,1984.74s-11.96,52.11-77.78,94.94c-65.82,42.84-182.23,60.88-220.31,40.46-38.09-20.42-13.29-71,30.27-84.65,43.56-13.65,228.15,40.02,267.82-50.75h0Z"/>
      <path class="cls-4" d="M1426.09,1910.65s5.24,65.71-42.87,117.88c-48.12,52.16-255.77-14.36-277.71,36.56-21.94,50.92-20.68,52.52-20.68,52.52,0,0-50.42-26.22-35.03-70.68,15.39-44.47,46.87-53.76,114.25-48.68,67.38,5.09,169.09,1.21,203.61-33.76,34.51-34.97,58.44-53.83,58.44-53.83h0Z"/>
      <path class="cls-8" d="M1502.87,1714.33s1.28,86.94-75.89,164.59c-77.17,77.66-161.43,80.7-247.02,70.57-85.59-10.13-200.48-4.92-206.28,7.41-5.8,12.33-80.97-12.47-65.68-43.93,15.29-31.46,312.39-72.96,421.25-100.58,108.86-27.62,138.67-47.23,173.61-98.06h0Z"/>
      <path class="cls-7" d="M799.91,1769.27s-7.61,88.78,90.98,99c98.6,10.22,254.22-45.85,254.22-45.85,0,0-307.11,9.93-345.2-53.15h0Z"/>
      <path class="cls-9" d="M1526,1665.71s-12.23,91.12-150.24,157.24c-138.01,66.12-304.99,34.78-407.9,73.23-102.91,38.45-192.49-35.8-164.65-112.06,0,0,20.82,105.16,125.24,78.47,104.41-26.69,446.22-42.65,597.55-196.87h0Z"/>
      <path class="cls-8" d="M573.87,1558.78s51.11,105.85,157.26,125.65c106.14,19.79,267.65-49.32,267.65-49.32,0,0-29.92-52.72-123.49-56.56-93.57-3.84-220.56,30.31-301.42-19.76h0Z"/>
      <path class="cls-12" d="M1749.29,1557.58s-141.49,10.01-200.87,71.69c-59.37,61.68-353.69,134.61-353.69,134.61,0,0,334.45-173.77,385.99-193.71,51.54-19.94,123.51-35.28,142.69-32.29,19.18,2.99,25.87,19.7,25.87,19.7h0Z"/>
      <path class="cls-6" d="M1558.76,1615.31s-20.04,95.98-200.09,162.91c-190.86,70.95-532.91,122.5-650.97-97.29,0,0,167.73,147.14,434.97,89.09,267.24-58.05,416.09-154.7,416.09-154.7h0Z"/>
      <path class="cls-6" d="M977.61,1649.22c-50.06-53.66-88.48-71.23-202.88-45.71-114.4,25.51-221.02-39.18-235.41-88.62,0,0,110.49,56.47,214.65,19.62,104.17-36.85,306.36,39.15,312.21,62.99,5.86,23.84-88.57,51.72-88.57,51.72h0Z"/>
      <path class="cls-3" d="M1053.82,1616.28c-65.62-7.77-106.45-66.12-279.91-54.83-173.47,11.29-227.32-22.57-255.57-64.96-28.25-42.4,243.44,8.56,315.44,11.3,72,2.74,317.85,52.09,317.85,52.09l-97.8,56.41h0Z"/>
      <path class="cls-9" d="M495.21,1447.46s-23.96,68.04,120.96,77.96c144.92,9.92,436.09,42.94,498.5,77.81,62.41,34.87,84.97-57.93,84.97-57.93,0,0-380.55-23.34-459.84-50.08-79.29-26.74-115.02-42.55-162.44-45.26-47.41-2.72-82.15-2.49-82.15-2.49h0Z"/>
      <path class="cls-12" d="M2106.42,1430.56s20.58,95.01-199.29,95.02c-219.87.01-316.56,34.85-545.73,137.91-229.17,103.06-461.8,113.14-547.88,82.7-86.08-30.44-162.44-100.22-162.44-100.22,0,0,107.4,76.35,364.92,2.68,257.51-73.66,390.5-170.75,656.36-168.21,265.85,2.54,406.35-35.8,434.06-49.88h0Z"/>
      <path class="cls-5" d="M2106.54,1431.25c1.33,8.53,9.54,94.32-199.41,94.33-219.87.01-316.56,34.85-545.73,137.91-229.17,103.06-461.8,113.14-547.88,82.7-86.08-30.44-162.44-100.22-162.44-100.22,0,0,15.93,11.31,50.2,21.03,25.83,25.88,94.11,60.5,271.69,36.62,267.03-35.9,568.24-156.94,665.32-182.83,97.08-25.88,316.25-3.55,387.55-20.42,54.33-12.85,74.27-51.46,80.68-69.13h0Z"/>
      <path class="cls-11" d="M721.85,1677.47c11.07,4.2,182.87-17.41,299.56-74.48,116.69-57.07,242.6-94.23,459.89-133.61,217.29-39.37,502.57,18.98,615.41-54.45,0,0,.13,47.75-175.36,76.16-175.49,28.41-319.2-40.67-524.19,53.68-205,94.35-463.34,150.56-675.31,132.7h0Z"/>
      <path class="cls-8" d="M2128.54,1402.79s-85.4,73.79-244.58,62.18c-159.18-11.61-367.89-20.4-520.33,45.45-262.85,113.55-522.68-31.12-821.14-16.18,0,0,160.98-40.25,283.91-15.58,122.92,24.67,286.63,46.94,420.92,12.21,134.3-34.73,306.64-109.8,547.04-87.86,240.41,21.95,334.17-.22,334.17-.22h0Z"/>
      <path class="cls-12" d="M875.87,1464.25c8.56,1.01,234.87,32.14,402.98-7.27,168.12-39.41,283.87-76.33,387.92-75.59,104.06.74,404.88,37.8,448.37,12.57,43.48-25.23,49.53-27.41,49.53-27.41,0,0-120.36,39.27-239.58-16.78-119.21-56.06-246.26-58.08-455.75-23.56-209.48,34.51-582.97,110.36-593.48,138.05h0Z"/>
      <path class="cls-3" d="M1901.08,1351.25s-102.84-59.91-314.84-28.59c-193.45,28.58-1068.7,275.62-1153.93,70.27,0,0,109.88,73.76,349.83,38.51,239.95-35.25,581.73-136.55,735.23-150.2,153.49-13.65,321.33-14.04,383.71,70.01h0Z"/>
      <path class="cls-9" d="M1800.93,1293.1c-12.66-2.95-252.32-31.31-395.6,18.27-128.76,44.55-929.3,234.07-986.17,58.3,0,0,62.9,55.18,323.32,18.02,260.42-37.16,613.36-122.68,743.36-133.33,130-10.65,227,.83,315.09,38.74h0Z"/>
      <path class="cls-3" d="M1201.44,1274.21s-236.02,63.19-352.43,81.24c-116.41,18.04-202,7.92-202,7.92,0,0,204.92-105.93,324.59-114.91,119.67-8.98,229.83,25.76,229.83,25.76h0Z"/>
      <path class="cls-12" d="M1284.94,1265.29s-58.77,32.1-198.98,6.82c-140.21-25.27-330.53,79.49-422.09,83.12,0,0,162.18-74.83,247.32-134.18,85.14-59.35,269.12,11.6,297.48,16.4,28.36,4.8,76.26,27.83,76.26,27.83h0Z"/>
      <path class="cls-9" d="M1380.3,1254.16s-99.38,33.08-207.61-5.77c-108.23-38.85-201.63-44.11-282.56,4.16-80.93,48.28-203.6,119.1-307.73,106.77,0,0,156.45-38.62,226.48-92.53,70.02-53.91,154.41-119.14,274.4-106.38,119.99,12.76,338.55,84.91,338.55,84.91l-41.52,8.83h0Z"/>
      <path class="cls-6" d="M599.65,1348.36s163.31-11.05,293.89-124.33c130.57-113.28,319.23-8.5,409.68,9.44,90.45,17.94,157,5.56,157,5.56,0,0-116.56-5.11-228.2-76.19s-193.29-77.85-318.54-21.79c-125.25,56.05-313.83,207.31-313.83,207.31h0Z"/>
      <path class="cls-3" d="M1437.84,1245.04c-47.15-17.15-130.49-9.66-252.02-94.92-121.54-85.26-270.81,2.66-332.35,46-61.54,43.34,104.41-136.63,216.52-130.59,112.11,6.04,177.11,55.68,266.87,103.91,89.76,48.23,159.4,70.94,159.4,70.94l-58.41,4.66h0Z"/>
      <path class="cls-9" d="M957.52,1111.53s76.16-69.1,207.29-15.97c131.13,53.13,206.76,147.42,359.41,140.9,0,0-187.64-113.34-259.03-157.95-71.38-44.61-226.29-55.71-307.67,33.02h0Z"/>
      <path class="cls-7" d="M1705.14,1253.89s-35.54-5.29-110.21-22.08c-74.68-16.79-202.36-74.57-240.61-105.86-38.24-31.29-105.3-81.9-105.3-81.9,0,0,94.52,14.08,141.16,47.8,46.63,33.73,314.96,162.04,314.96,162.04h0Z"/>
      <path class="cls-3" d="M1701.21,1256.67s-139.14,2.34-224.54-33.81c-85.4-36.14-243.97-199.56-414.94-160.49,0,0,107.45-52.37,177.67-22.36,70.22,30.01,145.25,141.59,461.82,216.66h0Z"/>
      <path class="cls-12" d="M488.52,1359.03c272.37,46.06,416.27-328.23,730.35-310.62,139.38,7.82,191.78,90.68,365.77,160.46,174,69.77,196.15,78.18,196.15,78.18,0,0-303.82-195.07-381.24-237.5-77.43-42.43-218.3-86.59-329.09-54.86-110.79,31.73-254.39,169.51-317.04,234.42-62.65,64.91-190.55,137.28-264.89,129.93h0Z"/>
      <path class="cls-8" d="M378.24,1258.44s7.65,106.5,104.91,103.55c97.26-2.96,212.6-48.61,301.2-149.5,88.6-100.89,261.31-227.99,415.88-214.04,154.57,13.95,361.91,168.67,361.91,168.67,0,0-129.71-162.89-334.86-201.64-205.15-38.74-325.5,85.87-466.05,197.97-140.56,112.1-319.91,148.73-382.98,94.98h0Z"/>
      <path class="cls-9" d="M786.36,1159.18s123.87-129.98,257.24-169.17c133.37-39.18,315.85,20.03,386.47,83.35,70.62,63.32,307.49,212.86,372.27,227.76,0,0-219.35-138.79-311.51-227.8-92.16-89.02-492.2-338.87-704.47,85.86h0Z"/>
      <path class="cls-3" d="M143.96,547.9s-90.27,200.5,14.48,415.4c104.75,214.9,256.63,227.1,416.43,196.83,159.8-30.27,291.19-236.03,476.01-282.14,184.82-46.11,428.49,107.13,480.56,168.26,0,0-130-209.21-242.16-276.01-112.15-66.79-352.87-12.84-460.29,124.88-107.43,137.72-218.01,228.78-401.28,212.87-183.27-15.91-260.15-246.31-266.56-326.62-6.41-80.32-17.19-233.48-17.19-233.48h0Z"/>
      <path class="cls-12" d="M1811.13,1200.85s-74.36,17.23-190.74-123.83c-116.38-141.06-252.34-361.11-415.47-376.07-163.12-14.97-352.44,105.83-352.44,105.83,0,0,88.86-115.32,240.63-175.47,151.77-60.15,328.17,50.41,397.34,138.16,69.17,87.74,189.66,365.26,320.69,431.4h0Z"/>
      <path class="cls-5" d="M1776.29,1197.56c-32.72-8.94-86.93-36.94-155.91-120.54-116.38-141.06-252.34-361.11-415.47-376.07-121.03-11.1-256.46,52.52-318.31,86.09l-3.48-14.44c9.77-9.94,21.79-21.48,35.93-33.8,55.78-33.33,167.44-87.88,298.13-85.85,171.26,2.67,370.04,357.79,559.11,544.6h0Z"/>
      <path class="cls-8" d="M916.46,728.15s123-81.87,277.62-94.91c154.63-13.04,263.14,119.14,307.02,176.16,43.88,57.02,224.64,475,485.32,513.08,0,0-287.07-303.98-362.37-421.38-75.3-117.4-150.86-273.4-283.97-330.14-133.11-56.74-363.53,36.53-423.62,157.18h0Z"/>
      <path class="cls-2" d="M149.97,747.11s28.23,229.96,195.96,289.59c167.73,59.63,250.18,45.28,383.49-72.74,133.3-118.02,205.62-209.5,385.49-221.96,179.87-12.46,270.29,99.49,304.24,158.96,33.94,59.47,374.4,421.6,555.3,451.45,180.89,29.85,164.55,5.01,164.55,5.01,0,0-333.72-103.38-476.69-260.12-142.97-156.75-220.72-375.69-476.93-410.83-256.2-35.15-386.61,231.48-599.79,280.98-213.19,49.5-401.76-88.53-435.61-220.32h0Z"/>
      <path class="cls-8" d="M828.53,312.05s-31.66,23.01-170.01,37.01c-138.35,14-160.36-1.62-156.33-11.27,4.03-9.65,118.02-43.89,203.11-41.78,85.09,2.12,123.23,16.03,123.23,16.03h0Z"/>
      <path class="cls-7" d="M831.95,313.9s-71.7,43.59-213.7,70.17c-142.01,26.58-190.51,20.85-188.14.88,2.36-19.97,43.17-46.96,67.08-41.24,23.91,5.72,195.35,11.55,334.77-29.81h0Z"/>
      <path class="cls-11" d="M370.23,383.66s21.12-25.7,104.15-67.23c83.03-41.52,208.62-57.76,273.94-41.35,65.32,16.41,80.82,44.28,80.82,44.28,0,0-47.95-16.52-167.28-10.4-119.34,6.13-181.48,66.76-208.05,77.35-26.57,10.6-83.58-2.66-83.58-2.66h0Z"/>
      <path class="cls-9" d="M379.89,412.29c-34.16,7.53-82.88,76.98-1.5,98.18,81.38,21.21,256.74-54.96,343.72-105.41,86.98-50.46,138.29-105.14,138.29-105.14,0,0-176.29,96.3-291.45,115.94-115.15,19.64-189.06-3.57-189.06-3.57h0Z"/>
      <path class="cls-6" d="M379.89,412.29c-34.16,7.53-82.88,76.98-1.5,98.18,81.38,21.21,256.74-54.96,343.72-105.41,86.98-50.46,138.29-105.14,138.29-105.14,0,0-54.01,29.5-121.76,59.17-98.12,53.34-223.43,114.73-290.46,120.87-100.82,9.22-75.24-46.57-51.62-63.67-10.86-2.19-16.66-4.01-16.66-4.01h0Z"/>
      <path class="cls-9" d="M370.12,390.88s40.03-63.25,198.91-97.96c158.88-34.71,254.03-7.54,258.7,38.57,4.67,46.12,31.77-5.64,17.82-40.56-13.95-34.92-134.3-75.2-298.44-26.64-164.14,48.56-208.45,111.3-176.99,126.6h0Z"/>
      <path class="cls-7" d="M174.05,482.69s-82.51,86.06-33.74,254.56c48.76,168.5,142.16,250.07,361.4,261.55,219.23,11.48,418.54-297.62,611.09-381.51,192.55-83.89,385.54,103.5,446.17,248.09,0,0-9.11-167.42-161.13-288.48-152.02-121.06-297.09-132.8-445.4,5.14-148.32,137.94-526.42,353.56-602.23,306.61-75.81-46.94-241.71-111.78-176.16-405.98h0Z"/>
      <path class="cls-3" d="M493.33,840.5s228.3-65.2,393.21-221.06c164.91-155.87,326.69-209.04,412.8-188,0,0-180.89,61.76-316.3,197.62-135.41,135.85-333.94,224.46-489.71,211.45h0Z"/>
      <path class="cls-12" d="M1081.76,467.16s-356.53,277.84-519.47,325.45c-162.94,47.61-262.63-41.93-262.63-41.93,0,0,201.16,41.89,396.38-110.39,195.22-152.28,385.73-173.13,385.73-173.13h0Z"/>
      <path class="cls-3" d="M1208.51,435.15c-70.69-13.79-360.51,112.83-481,214.28-120.49,101.46-367.9,175.23-462.34,71.85l-22.41-55.09s60.45,115.64,356.78-35.52c296.34-151.16,356.93-250.67,518.26-238.8,161.33,11.86,162.45,48.16,162.45,48.16l-71.75-4.88h0Z"/>
      <path class="cls-11" d="M228.49,527.07s-68.77,245,181.23,195.03c250.01-49.97,533.08-287.68,624.04-307.65,90.96-19.97,285.93,28.42,285.93,28.42,0,0-93.62-79.79-243.61-95.73-149.99-15.94-526.18,321.04-655.95,332.8-129.76,11.76-178.48-80.79-191.64-152.87h0Z"/>
      <path class="cls-8" d="M355.59,423.67c-184.63-14.19-203.03,377.19,184.24,246.01,197.78-67,353.26-265.56,502.12-285.92,148.86-20.35,358.69,85.85,358.69,85.85,0,0-82.5-82.09-184.63-135.76-102.13-53.68-335.17,36.27-426.38,119.49-91.21,83.23-288.51,191.87-400,171.44-111.49-20.43-122.59-64.23-114.11-112.95,8.48-48.72,80.08-88.16,80.08-88.16h0Z"/>
      <path class="cls-1" d="M290.14,438.08c-116.65,68.2-84.92,344.95,249.69,231.6,149.5-50.64,274.84-176.45,391.41-243.65-95.94,42.47-219.77,133.6-315.61,187.05-135.51,75.57-300.48,74.13-352.59-15.21-34.19-58.62-.27-122.67,27.1-159.79h0Z"/>
      <path class="cls-9" d="M2183.6,1294.56s-13.83,48.08-48.72,60.23c-34.88,12.14-120.15-16.03-265.08-143.48-144.93-127.45-237.93-296.66-237.93-296.66,0,0,249.81,295.36,371.82,356.81,122,61.45,146.29,62.52,179.9,23.1h0Z"/>
      <path class="cls-3" d="M841.86,440.51c603.96-390.73,686.42,519.99,1349.95,845.96,0,0,34.52-1.34,7.32-38.91-27.19-37.57-482.69-451.29-545.74-590.75-63.05-139.45-385.66-667.63-811.53-216.3h0Z"/>
      <path class="cls-2" d="M2195.7,1276.96c-7.67,18.98-64.1,6.88-126.07-34.81-61.97-41.69-215.02-184.56-215.02-184.56,0,0,312.17,158.09,341.08,219.37h0Z"/>
      <path class="cls-4" d="M2195.95,1282.41s-18.23,39.43-48.49,43.08c-30.27,3.65-87.9-21.26-116.03-66.17-28.14-44.91-137.04-163.58-137.04-163.58,0,0,214.7,187.24,301.56,186.67h0Z"/>
      <path class="cls-7" d="M2155.92,1322.87s-66.09,8.45-146.79-104.16c-80.69-112.61-370.86-380.2-408.8-426.28-37.94-46.08-148.53-165.84-148.53-165.84,0,0,134.31,240.1,181.47,299.92,47.16,59.83,399.23,461.31,522.64,396.36h0Z"/>
      <path class="cls-7" d="M2070.95,506.92s103.75-5.8,142.93,60.31c39.18,66.11-8.29,299.16-7.06,349.94l-135.87-410.25h0Z"/>
      <path class="cls-12" d="M2070.47,511.15c66.87-76.65,296.81,10.07,185.58,280.52-40.09,97.47-27.51,186.59-27.51,186.59,0,0-29.33-57.72-24.06-102.29,5.28-44.58,15.05-218.8-10.5-277.88-25.55-59.08-123.51-86.94-123.51-86.94h0Z"/>
      <path class="cls-5" d="M2070.47,511.15c1.92-2.21,4-4.27,6.18-6.2,37.4,6.28,114.85,24.75,145.56,72.88,38.21,59.89-14.52,256.89-9.56,360.16-5.86-18.99-10.56-41.85-8.17-62.02,5.28-44.58,15.05-218.8-10.5-277.88-25.55-59.08-123.51-86.94-123.51-86.94h0Z"/>
      <path class="cls-12" d="M2297.7,1138.26s-145.58-22.65-201.92-157.7c-56.34-135.04-139.43-273.25-199.92-327.42-60.49-54.17-79.77-74.54-79.77-74.54,0,0,98.92,141.89,155.26,276.94,56.34,135.04,191.92,364.45,234.48,402.03,0,0-29.75-54.15-11.47-86.34,18.27-32.19,58.33-3.94,103.34-32.97h0Z"/>
      <path class="cls-7" d="M2411.83,2231.07c3.03,20.25,12.49,70.19-4.78,86.22-17.26,16.03-112.62,11.98-107.02,33.44,5.6,21.46,62.84,3.82,63.86,41.01,1.02,37.19-43.82,26.45-52.17,43.55-8.35,17.09,67.18,5.25,75.96-15.42,8.78-20.66-6.68-50.52-9.5-57.18-2.83-6.66,54.29-8.04,58.93-47.27,4.65-39.23-25.28-84.36-25.28-84.36h0Z"/>
      <path class="cls-3" d="M1794.95,2562.17c15.48-180.43,370.04,145.5,471.81,16.06,46.83-59.55,28.19-116,28.19-116,0,0,6.18,92.94-94.38,109.97-100.56,17.03-254.89-99.78-344.35-123.03-89.46-23.24-61.28,112.99-61.28,112.99h0Z"/>
      <path class="cls-7" d="M1794.95,2562.17c14.4-167.86,322.22,102.45,447.01,36.75-127.52,15.82-314.33-100.18-388.07-115.51-44.37-9.23-59.54,15.55-62.86,45.86.96,18.57,3.92,32.9,3.92,32.9h0Z"/>
      <path class="cls-9" d="M2127.61,449.01c36.98-24.16,169.9-100.61,311.94-56.18,268.45,83.98,91.16,658.14,110.91,850.28,0,0-18.06,30.41-24.52-37.26-6.46-67.66,45.29-565.99-33.93-691.09-79.21-125.1-234.58-110.94-308.25-69.03-13.62,7.75-34.35,15.27-50.25,19.04-22.17,5.25-34.95,3.2-5.91-15.77h0Z"/>
      <path class="cls-9" d="M2540.15,1215.65s84.96,152.89,87.18,286.95c2.21,134.06-9.92,221.22-39.85,275.54-29.93,54.32-77.15,155.4-60.57,221.55,16.58,66.15,45.85,132,25.22,161.19-20.64,29.2-120.2,45.44-120.2,45.44,0,0,111.69-34.69,99.83-94.86-11.86-60.17-78.44-164-28.24-252.08,50.2-88.08,101.08-203.06,82.21-364.41-18.88-161.35-115.9-305.38-176.71-341.51-60.82-36.13,81.6-.63,131.12,62.19h0Z"/>
      <path class="cls-6" d="M2437.32,2205.39c-3.42.63-5.38.95-5.38.95,0,0,111.69-34.69,99.83-94.86-11.87-60.17-78.44-164.01-28.24-252.08,50.21-88.08,101.08-203.06,82.21-364.41-18.88-161.35-115.9-305.38-176.71-341.51-35.3-20.97-2.13-17.8,41.61.82,37.4,26.32,76.04,66.59,103.35,128.06,71.89,161.74,83.62,332.65,24.46,447.8-59.16,115.16-86.52,202-77.25,243.18,9.27,41.18,50.65,139.49,36.99,178.96-8.68,25.08-62.65,43.21-100.87,53.09h0Z"/>
      <path class="cls-12" d="M272.39,435.19c-58.32,3.94-133.43,302.43,67.08,380.4,508.69,197.82,885.99-748.89,1169.13-223.24,118.59,220.16,660.82,649.57,660.82,649.57,0,0-256.73-91.86-506.61-363.72-249.88-271.86-325.68-486.95-557.42-301.03-231.74,185.93-407.09,414.69-676.43,368.35-130.73-22.5-210.14-100.68-252.19-186.58-44.58-91.09-47.15-190.85-24.34-242.12,44.33-99.62,119.96-81.63,119.96-81.63h0Z"/>
      <path class="cls-5" d="M1741.08,957.62c-25.96-24.58-52.16-51-78.28-79.42-249.88-271.86-325.68-486.95-557.42-301.03-231.74,185.93-407.09,414.69-676.43,368.35-130.73-22.5-210.14-100.68-252.19-186.58-44.58-91.09-47.15-190.85-24.34-242.12,18.75-42.13,43.09-63.22,64.95-73.54-51.08,96.76-132.46,342,98.01,436.48,291.43,119.47,682.54-251.91,765.99-330.63,83.45-78.72,274.61-135.65,363.87,26.79,55.13,100.34,196.1,268.08,295.84,381.69h0Z"/>
      <path class="cls-2" d="M2174.55,1244.35s-209.42-247.18-286.47-314.16c-77.05-66.98-152.09-166.26-203.83-279.06-51.74-112.8-212.71-341.59-395.92-397.63,0,0,118.76-4.86,260.65,112.21,187.76,154.92,481.79,700.19,625.58,878.64h0Z"/>
      <path class="cls-9" d="M2189.28,1261.54s-474.27-402.94-561.12-616.41c-86.84-213.46-397.42-460.41-607.46-313.62-210.05,146.79-476.64,356.96-653.84,314.97-177.2-41.99-69.8-190.32-69.8-190.32,0,0-26.22,145.16,207.62,109.55,233.84-35.61,376.43-232.08,493.01-285.18,116.58-53.1,203.48-115.14,432.36,43.94,228.88,159.08,232.62,356.61,460.71,598.77,228.09,242.16,298.52,338.29,298.52,338.29h0Z"/>
      <path class="cls-6" d="M296.19,468.1c-.23,33.96,16.21,126.9,208.49,97.62,233.84-35.61,376.43-232.08,493.01-285.18,116.58-53.1,203.48-115.14,432.36,43.94,83.52,58.05,137.05,121.23,182.46,189.82-71.81-82.48-184.63-193.66-299.42-233.32-191.08-66.01-356.08,65.14-473.7,152.47-117.62,87.33-319.1,200.9-469.64,158.97-112.12-31.22-91.42-94.2-73.56-124.31h0Z"/>
      <path class="cls-8" d="M2300.76,1137.65s-116.38-86.09-173.27-338.73c-56.89-252.63-101.24-427.84-483.35-621.33C1262.03-15.9,993.68,21.04,944.65,221.36c0,0,96.23-201.96,427.42-97.67,331.19,104.29,600.4,335.04,647.29,488.85,46.89,153.81,59.25,477.12,281.39,525.11h0Z"/>
      <path class="cls-9" d="M2331.18,1140.33c-104.83-91.97-107.75-197.18-155.01-408.9C2048.95,161.6,1071.4-187.05,952.17,196.02c162.67-329.31,825.8,44.33,1004.14,223.72,176.81,177.85,189.35,752.11,374.87,720.6h0Z"/>
      <path class="cls-6" d="M1050.25,95.09c244.97-125.08,753.31,171,906.06,324.65,170.73,171.73,188.32,713.02,356.36,721.67-35.43-22.36-82.75-65.87-109.52-146.97-46.58-141.12-70.94-424.25-229.32-598.5-145.41-159.98-701.91-464.55-923.58-300.85h0Z"/>
      <path class="cls-3" d="M318.73,442.61c-117.68,48.27,108.39,288.38,512.97-26.07,145.36-112.98,293.77-236.44,555.01-136.82,261.23,99.62,646.66,494.21,705.02,596.94,0,0-69.32-178.16-295.32-407.42-226-229.26-617.39-344.29-722.54-280.79-105.15,63.5-402.42,344.73-590.91,333.27-188.49-11.46-171.27-34.74-164.23-79.1h0Z"/>
      <path class="cls-11" d="M2078.62,842.54c.12-16.26-109.98-231.8-319.11-435.55-209.12-203.75-610.56-386.87-815.25-185.08-204.69,201.79-489.42,323.6-572.57,277.59-83.15-46,41.29-89.13,41.29-89.13,0,0-149.17,7.66-96.35,80.81,52.82,73.15,245.21,46.97,441.66-65.25,196.45-112.22,268.2-277.97,500.64-242.7,232.44,35.27,500.2,234.58,819.69,659.31h0Z"/>
      <path class="cls-12" d="M2087.93,868.9s-47.57-135.81-266.25-390.24c-218.68-254.42-683.07-455.48-876.23-253.41,0,0-6.57-14.88,46.97-70.02,220.56-227.16,902.55,162.2,1010.12,402.34,0,0,37.74,47.86,85.39,311.34h0Z"/>
      <path class="cls-5" d="M2087.93,868.9s-47.57-135.81-266.25-390.24c-218.68-254.42-683.07-455.48-876.23-253.41,0,0-.19-.42-.24-1.39,21.86-25.5,56.54-59.26,99.68-78.53,75.72-33.83,202.45-45.34,409.95,34.66,207.51,80.01,374.48,227.54,490.72,406.44,69.01,106.21,112.97,197.98,137.3,255.03,1.68,8.89,3.37,18.01,5.07,27.45h0Z"/>
      <path class="cls-7" d="M2206.25,1262.13s-194.14-192.94-290.72-385.18c-96.58-192.24-366.98-535.23-494.71-586.51,0,0,304.72,144.55,430.68,333.03,125.96,188.48,168.2,381.53,354.74,638.66h0Z"/>
      <path class="cls-9" d="M2302.09,1139.68s-144.66-68.66-184.76-172.85c-40.11-104.19,22.48-121.19-382.5-472.88,0,0,245.28,249.61,292.6,369.13,47.33,119.51,133.45,277.97,274.65,276.6h0Z"/>
      <path class="cls-9" d="M2375.02,424.68s133.46,64.01,58.79,226.34c-74.66,162.33-76.93,405.55-47.46,462.08,29.47,56.52,79.11,64.81,79.11,64.81,0,0-56.34-33.19-59.35-129.97-3.01-96.79,36.14-285.02,74.39-384.16,38.25-99.13-8.43-244.49-105.5-239.1h0Z"/>
      <path class="cls-2" d="M2501.47,1168.92c-38.01-45.48-55.16-124.66-37.59-252.76,17.57-128.1,62.86-286.67,48.78-351.02-14.09-64.35-68.18-116.56-68.18-116.56,0,0,78.28,71.95,29.08,222.82-49.2,150.88-148.9,524.8,27.91,497.51h0Z"/>
      <path class="cls-3" d="M2201.39,445.13s122.15-74.74,235.96-17.88c113.81,56.87,128.19,302.06,114.4,418.55-13.79,116.5-20.33,365.24-20.33,365.24,0,0-31.32-20.58-58.5-45.5-27.19-24.92-43.93-290.88,3.29-404.62,47.21-113.75,71.84-433.87-274.82-315.79h0Z"/>
      <path class="cls-7" d="M2201.39,445.13s46.76-28.59,109.35-36.95c65.36-.39,129.96,13.76,158.29,63.8,67.38,119.01,82.44,256.71,37.27,417.81-32.08,114.42-22.62,221.08-2.13,301.7-9.67-7.38-20.76-16.34-31.25-25.94-27.18-24.92-43.92-290.88,3.29-404.63,47.21-113.75,71.84-433.87-274.82-315.79h0Z"/>
      <path class="cls-8" d="M2095.06,488s23.24-33.41,147.46-64.51c124.22-31.1,237.71,33.56,221.13,132.85-16.57,99.29-161.83,445.53-55.49,585.88,0,0-99.75,48.46-70.77-196.42,28.98-244.88,121.92-337.55,42.55-440.96-79.37-103.42-284.89-16.85-284.89-16.85h0Z"/>
      <path class="cls-11" d="M142.87,516.66c-25.19,17.27-175.02,427.69,92.72,609.81,267.74,182.12,458.5,36.91,586.99-95.42,128.49-132.33,390.7-196.77,571.35-36.52,84.38,74.84,195.9,176.25,319.99,255.63,141.58,90.57,299.53,152.46,452.15,113.48,0,0-247.75,40.11-502.02-206.96-254.26-247.06-475.87-403.48-724.22-236.15-248.34,167.33-446.34,333.56-646.63,183.83-200.29-149.73-199.28-357.86-150.33-587.7h0Z"/>
      <path class="cls-4" d="M79.5,757.83c-7.54,127.96,21.54,277.12,156.08,368.64,267.74,182.12,458.5,36.91,586.99-95.42,128.49-132.33,390.7-196.77,571.35-36.52,84.38,74.84,195.9,176.25,319.99,255.63,80.53,51.51,166.35,93.74,253.48,113.41-313.34-104.66-604.63-499.32-837.6-481.12-294.43,23.01-430.46,337.19-766.65,285.35-195.44-30.14-262.08-239.73-283.64-409.97h0ZM2009.9,1371.31c52.1,7.15,104.44,5.54,156.17-7.67,0,0-34.81,5.64-91.74-.33-20.26,2.46-41.81,5.14-64.43,8h0Z"/>
      <path class="cls-3" d="M2163.1,1330.64s-51.76,95.13-301.67-139.85c-249.92-234.98-289.9-410.4-392.02-549.77-102.12-139.37-207.98-198.19-375.25-55.98,0,0,111.86-114.05,260.82-3.85,148.96,110.2,252.59,481.2,492.81,651.38,240.22,170.18,282.87,152.09,315.29,98.07h0Z"/>
      <path class="cls-9" d="M1995.26,1542.27c-19.97-2.37-214.28-71.65-384.85.74-170.57,72.39-425.79,224.43-810.12,196.3,0,0,155.01,108.03,423.78,12.55,268.77-95.48,367.72-222.63,556.01-200.34,188.3,22.29,223.7,40.94,215.18-9.25h0Z"/>
      <path class="cls-2" d="M416.91,1312.08s-67.19,78.83,378.28,30.31c445.47-48.53,752.72-200.2,975.33-52.35,0,0-107.71-67.71-377.79-10-270.09,57.71-806.74,167.77-922.51,119.36-115.77-48.42-53.31-87.31-53.31-87.31h0Z"/>
      <path class="cls-9" d="M155.54,784.28s37.7,193.23,266.58,263.71c228.88,70.48,292.04-133.22,489.25-247.3,197.2-114.08,400.09-68.37,491.8,61.1,91.71,129.47,181.95,222.6,181.95,222.6,0,0-114.23-85.84-223.75-211.63-109.51-125.79-356.65-127.55-475.4-4.19-118.75,123.36-209.6,291.97-416.61,268.92-207.01-23.06-328.65-191.5-313.83-353.21h0Z"/>
      <path class="cls-6" d="M155.54,784.28s2.53,12.91,10.21,33.25c14.45,82.94,63.3,226.87,228.54,259.96,235.5,47.16,337.82-63.68,400.53-145.46,62.71-81.77,339.68-323.83,575.15-52.46,5.01,5.77,9.03,11.42,12.63,17.03-7.08-7.77-14.16-15.72-21.23-23.84-109.51-125.79-356.65-127.55-475.4-4.19-118.75,123.36-209.6,291.97-416.61,268.92-207.01-23.06-328.65-191.5-313.83-353.21h0Z"/>
      <path class="cls-8" d="M1342.13,2055.89c-23.35,26.17-173.27,95.21-219.07,66.64-45.8-28.56-32.78-53.06-32.78-53.06,0,0-49.46,38.99,12.28,79.56,61.74,40.57,247.25-35.83,239.57-93.15h0Z"/>
      <path class="cls-6" d="M528.85,1496.77s190.88-72.88,400.99-39.33c210.11,33.55,419.46-48.71,666.2-80.26,246.74-31.55,406.62,59.7,568.64-13.7,0,0-16.83,93.47-258.08,66.37-241.25-27.11-376.11-24.27-584.79,52.29-208.67,76.55-423.97,13.46-561.59,2.96-137.62-10.5-231.37,11.68-231.37,11.68h0Z"/>
      <path class="cls-6" d="M596.71,1277.71c250.45-62.93,302.73-406.79,579.77-327.71,277.04,79.08,340.26,155.99,340.26,155.99,0,0-135.64-198.31-316.73-208.17-181.09-9.86-283.49,24.3-464.04,205.44-180.55,181.14-432.73,63.06-432.73,63.06,43.83,137.46,165.03,143.67,293.47,111.4h0Z"/>
      <path class="cls-9" d="M287.33,445.61c-42.19,20.32-99.05,179.94,4.73,280.81,303.71,295.22,752.49-508.54,1083.27-276.8,0,0-166.63-73.97-392.3,121.72-225.67,195.69-452.55,367.27-686.9,223.82-234.35-143.45-47.68-402.97-8.8-349.55h0Z"/>
      <path class="cls-6" d="M1249.9,438.58c-68.71,8.71-161.33,41.24-266.87,132.76-225.67,195.69-452.55,367.27-686.9,223.82-205.66-125.9-87.08-341.15-28.68-355.86-34.51,43.12-131.54,183.16-26.17,281.36,125.94,117.36,322.36,138.2,486.37,15.37,149.96-112.3,328.38-294.75,522.25-297.45h0Z"/>
      <path class="cls-12" d="M2078.29,498.49s42.72-40.14,169.02-53.22c126.31-13.08,198.03,37.9,189.46,125.48-8.03,82.14-136.56,396.51-75.75,542.79,4.03,9.69,8.89,18.65,14.68,26.75,0,0-85.19,47.78-99.87-118.49-14.67-166.27,77.97-337.92,50.14-438.86-27.84-100.93-247.69-84.46-247.69-84.46h0Z"/>
      <path class="cls-5" d="M2080.18,496.9c3.85-3.08,13.78-10.27,31.69-18.5,56.96-16.1,176.27-43.09,240.32-8.61,86.13,46.35,59.48,149.28,7.06,307.01-41.87,125.99-46.71,264.06,6.38,346.63,3,5.95,6.34,11.61,10.09,16.87,0,0-85.19,47.78-99.87-118.49-14.67-166.27,77.97-337.92,50.14-438.86-26.32-95.45-224.33-85.9-245.77-84.58l-.03-1.47h0Z"/>
      <path class="cls-2" d="M2081.1,497.92s74.09-45.47,196.91-29.13c122.83,16.34,131.35,127.65,101.08,200.01-30.26,72.36-139.36,383.09-34.1,471.49,0,0-92.4-29.02-91.04-162.66,1.36-133.64,80.34-281.59,51.36-388.08-28.98-106.49-224.21-91.63-224.21-91.63h0Z"/>
      <path class="cls-4" d="M2081.1,497.92s26.65-16.35,74.47-25.92c27.02-3.76,60.69-3.47,100.38,6.27,113.62,27.91,89.45,181.16,73.32,256.39-14.2,66.17-89.15,283.61-2.79,396.61-26.89-16.35-73.49-58.45-72.53-153.65,1.36-133.64,80.34-281.59,51.36-388.08-28.98-106.49-224.21-91.63-224.21-91.63h0Z"/>
      <path class="cls-3" d="M2082.44,501.71c408.96-137.58,131.85,436.21,193.13,583.37,0,0-75.06-68.55-45.27-213.29,29.79-144.74,68.02-223.38,28.95-305.76-39.07-82.37-176.81-64.32-176.81-64.32h0Z"/>
      <path class="cls-12" d="M839.28,307.49s-46.1-78.99-218.86-45.19c-172.75,33.8-299.25,124.9-280.33,158.48,0,0-49.67,32.69-46.85-11.57,2.83-44.26,19.62-63.98,117.08-123.56,97.46-59.58,268.74-91.15,352.79-67.94,84.04,23.21,120.57,91.42,76.16,89.78h0Z"/>
      <path class="cls-8" d="M297.89,380.25c.94-20.14,44.74-133.57,250.96-177.14,206.22-43.58,325.42,12.48,309.76,95.97,0,0,6.77-81.65-180.45-76.32-187.23,5.32-350.36,124.88-380.26,157.5h0Z"/>
      <path class="cls-3" d="M831.58,314.21s-58.86,45.11-195.43,86.81c-136.56,41.7-300.05,38.98-301.72,16.36-1.66-22.62,19.44-51.22,46.04-43.73,26.6,7.49,263.65,33.38,451.1-59.44h0Z"/>
      <path class="cls-12" d="M1973.71,1604.88c-13.01-.09-33.32.4-77.35-30.85-44.03-31.25-104.97-29.78-104.97-29.78,0,0,85.45,96.9,123.71,103.6,38.27,6.7,46.58-2.44,55.32-15.15,8.74-12.71,3.29-27.82,3.29-27.82h0Z"/>
      <path class="cls-11" d="M1925.12,1667.11s-74.36,17.24-118.79-47.33c-44.43-64.56-70.11-67.6-85.29-73.74,0,0,59.54-8.14,81.1,17.55,21.55,25.69,42.36,88.18,122.99,103.52h0Z"/>
      <path class="cls-3" d="M1960.6,1642.38c-11.51,11.66-32,38.16-71.68,19-39.67-19.16-84.02-96.74-100.29-105.89-16.27-9.16-23.91-5.72-23.91-5.72,0,0,15.71-22.73,72.16,25.9,56.44,48.63,50.96,82.7,123.74,66.72h0Z"/>
      <path class="cls-8" d="M2000.2,1558.12s1.18,44.98-33.27,48.86c-34.45,3.88-95.36-46.73-95.36-46.73,0,0,115.54,25.97,128.63-2.14h0Z"/>
      <path class="cls-9" d="M968.81,1851.44s98.79-15.79,179.65,34.28c80.86,50.07,153.67,94.85,231.92,44.8,25.49-16.3,43.75-33.77,56.79-49.91,26.98-33.4,31.57-61.13,31.57-61.13,0,0-92.73,123.55-182.92,91.18-90.19-32.37-116.15-106.32-317-59.22h0Z"/>
      <path class="cls-12" d="M1440.91,1895.74s-8.38,19.95-26.51,42.18c-22.58,27.69-60.28,58.94-115.72,59.59-99.95,1.19-216.89-61.83-266.32-47.43-49.44,14.4-59.18,23.37-59.18,23.37,0,0-8.02-54.47,83.37-56.67,91.39-2.2,207.58,54.94,293.45,26.05,85.87-28.89,105.38-96.01,105.38-96.01l-14.46,48.91h0Z"/>
      <path class="cls-7" d="M1371.89,1975.52s-12.95,36.08-218.18-14.25c-205.23-50.33-145.2,29.1-105.1,56.99,40.09,27.89,103.91-22.41,196.37,2.99,92.46,25.4,143.66,8.33,126.92-45.73h0Z"/>
      <path class="cls-11" d="M1587.75,1637.7c-43.34,48.39-37.5,206.75,23.4,254.46,60.89,47.71,133.03,98.19,114.77,166.91,0,0,2.74-72-79.98-106.38-82.72-34.38-181.55-189.28-58.18-314.99h0Z"/>
      <path class="cls-12" d="M1421.54,2051.98c-13.96,44.63-58.33,126.17-263.29,171.34-204.96,45.17-253.26,233.29-253.26,233.29,0,0,82.69-160.9,221.84-187.82,139.16-26.92,286.57-99.16,294.7-216.8h0Z"/>
      <path class="cls-12" d="M1833.16,1873.62c-60.68,11.62-75.23-60.98-57.08-92.1,18.15-31.12-48.39-43.33-47.09,19.02,1.3,62.35,54.98,97.63,104.17,73.08h0Z"/>
      <path class="cls-9" d="M1520.4,1717.32c-33.37,74.16-23.97,202.56,50.92,266.39,74.89,63.83-13.24,209.62-142.67,252.15,0,0,119.48,17.04,200.3-103.58,80.81-120.62-60.54-185.08-86.76-244.6-26.22-59.52-28.69-136.47-21.79-170.37h0Z"/>
      <path class="cls-10" d="M1486.39,354.52s94.89,114.9,243.28,327.73c148.38,212.83,310.22,393.51,310.22,393.51,0,0-239.29-218.77-280.78-296.01-41.49-77.23-265.46-405.09-272.72-425.23h0Z"/>
      <path class="cls-10" d="M202.23,744.96c119.72,295.42,595.54,57.02,759.94-86.04,0,0-591.49,414.56-759.94,86.04h0Z"/>
      <path class="cls-10" d="M293.79,969.18s119.89,168.48,343.89,47.94c224.01-120.55,345.31-371.38,659.2-232.97,0,0-182.39-190.34-547.37,123.26,0,0-218.37,256.21-455.72,61.78h0Z"/>
      <path class="cls-10" d="M515.45,1377.53s109.15,24.97,502.77-41.75c393.62-66.72,487-91.83,487-91.83,0,0-658.28,123.39-989.77,133.58h0Z"/>
      <path class="cls-10" d="M850.97,1689.67s244.77-10.81,452.31-83.88c207.54-73.07,273.92-94.15,273.92-94.15,0,0-169.15,84.85-341.56,125.92-172.41,41.07-333.06,64.24-384.66,52.11h0Z"/>
      <path class="cls-10" d="M1499.41,1017.87s283.52,283.08,488.39,324.2c0,0-169.59,17.29-488.39-324.2h0Z"/>
      <path class="cls-10" d="M2363.79,466.85s108.52,20.07,6.24,273.16c0,0,80.09-218.34-6.24-273.16h0Z"/>
      <path class="cls-9" d="M19.95,784.84s-50.81,248.84,210.08,423.1c0,0-310.34-137.35-210.08-423.1h0Z"/>
      <path class="cls-12" d="M387.36,191.61s245.92-150.49,464.76-12.94c0,0-178.25-207.68-464.76,12.94h0Z"/>
      <path class="cls-9" d="M915.57,162.23c10.46-25.98,19.63-150.17,95.53-162.23,0,0,24.15,6.18,11.87,27.87-12.29,21.69-61.89,39.01-107.4,134.36h0Z"/>
      <path class="cls-9" d="M725.09,1773.01c6.81,1.51,51.6,46.72,41.29,84.58-10.31,37.85-30.68-74.12-41.29-84.58h0Z"/>
      <path class="cls-3" d="M1452.69,2098.2s-19.05,133.16-130.59,152.47c-111.54,19.31-304.91,82.26-288.96,177.62,0,0,32.15-98.24,191.38-125.52,159.23-27.28,223.21-87.99,228.17-204.58h0Z"/>
      <path class="cls-10" d="M1156.43,515.01s198.05-113,299.82,133.26c101.78,246.26,370.22,502.2,551.74,608.49,0,0-269.28-104.57-443.36-366.58-174.08-262.01-219.5-382.92-408.21-375.17h0Z"/>
      <path class="cls-11" d="M968.86,2018.06c-22.22,52.53,10.31,120.72,99.97,173.86,0,0-186.23-44.89-99.97-173.86h0Z"/>
      <path class="cls-10" d="M1496.72,152.91s262.55,129.76,382.61,240.1c120.06,110.34,162.78,323.38,162.78,323.38,0,0-112.85-226.58-186.96-314.73-74.11-88.15-358.43-248.75-358.43-248.75h0Z"/>
    </g>
  </g>
</svg>