<?xml version="1.0" encoding="UTF-8"?>
<svg id="Layer_2" data-name="Layer 2" xmlns="http://www.w3.org/2000/svg" width="401.29" height="235.7" viewBox="0 0 401.29 235.7">
  <defs>
    <style>
      .cls-1 {
        fill: #5c8984;
        stroke-width: 0px;
      }
    </style>
  </defs>
  <g id="Layer_1-2" data-name="Layer 1">
    <g>
      <path class="cls-1" d="M0,.32h101.74v30.96H35.07v64.14h53.71v31.59h-53.71v74.25h77.09v31.28H0V.32Z"/>
      <path class="cls-1" d="M234.87,0l111.85,232.54h-40.76l-19.9-45.5h-106.48l-19.9,45.5h-39.49L231.39,0h3.47ZM219.07,98.89l-25.28,56.24h78.36l-24.96-55.92-13.59-31.91h-.63l-13.9,31.6Z"/>
      <path class="cls-1" d="M362.43,229.22c-4.42-4.32-6.63-9.64-6.63-15.96s2.16-11.95,6.48-16.27c4.32-4.32,9.74-6.48,16.27-6.48s11.95,2.16,16.27,6.48c4.32,4.32,6.48,9.74,6.48,16.27s-2.16,11.64-6.48,15.96c-4.32,4.31-9.74,6.48-16.27,6.48s-11.69-2.16-16.11-6.48Z"/>
    </g>
  </g>
</svg>